HIERARCHY
ROOT Hips
{
	OFFSET 0.00000 0.00000 0.00000
	CHANNELS 6 Xposition Yposition Zposition Zrotation Yrotation Xrotation 
	JOINT LHipJoint
	{
		OFFSET 0 0 0
		CHANNELS 3 Zrotation Yrotation Xrotation
		JOINT LeftUpLeg
		{
			OFFSET 1.53139 -1.83434 0.76626
			CHANNELS 3 Zrotation Yrotation Xrotation
			JOINT LeftLeg
			{
				OFFSET 2.56112 -7.03663 0.00000
				CHANNELS 3 Zrotation Yrotation Xrotation
				JOINT LeftFoot
				{
					OFFSET 2.59983 -7.14299 0.00000
					CHANNELS 3 Zrotation Yrotation Xrotation
					JOINT LeftToeBase
					{
						OFFSET 0.13742 -0.37757 2.00054
						CHANNELS 3 Zrotation Yrotation Xrotation
						End Site
						{
							OFFSET 0.00000 -0.00000 1.02897
						}
					}
				}
			}
		}
	}
	JOINT RHipJoint
	{
		OFFSET 0 0 0
		CHANNELS 3 Zrotation Yrotation Xrotation
		JOINT RightUpLeg
		{
			OFFSET -1.40122 -1.83435 0.76627
			CHANNELS 3 Zrotation Yrotation Xrotation
			JOINT RightLeg
			{
				OFFSET -2.54052 -6.98003 0.00000
				CHANNELS 3 Zrotation Yrotation Xrotation
				JOINT RightFoot
				{
					OFFSET -2.63179 -7.23079 0.00000
					CHANNELS 3 Zrotation Yrotation Xrotation
					JOINT RightToeBase
					{
						OFFSET -0.24131 -0.66299 2.03908
						CHANNELS 3 Zrotation Yrotation Xrotation
						End Site
						{
							OFFSET -0.00000 -0.00000 1.07391
						}
					}
				}
			}
		}
	}
	JOINT LowerBack
	{
		OFFSET 0 0 0
		CHANNELS 3 Zrotation Yrotation Xrotation
		JOINT Spine
		{
			OFFSET 0.01174 2.10302 -0.29778
			CHANNELS 3 Zrotation Yrotation Xrotation
			JOINT Spine1
			{
				OFFSET 0.00772 2.13227 -0.01247
				CHANNELS 3 Zrotation Yrotation Xrotation
				JOINT Neck
				{
					OFFSET 0 0 0
					CHANNELS 3 Zrotation Yrotation Xrotation
					JOINT Neck1
					{
						OFFSET -0.09219 1.60848 0.31481
						CHANNELS 3 Zrotation Yrotation Xrotation
						JOINT Head
						{
							OFFSET 0.13974 1.65456 -0.31134
							CHANNELS 3 Zrotation Yrotation Xrotation
							End Site
							{
								OFFSET 0.04742 1.69515 -0.14578
							}
						}
					}
				}
				JOINT LeftShoulder
				{
					OFFSET 0 0 0
					CHANNELS 3 Zrotation Yrotation Xrotation
					JOINT LeftArm
					{
						OFFSET 3.24909 1.02882 -0.23993
						CHANNELS 3 Zrotation Yrotation Xrotation
						JOINT LeftForeArm
						{
							OFFSET 5.32955 -0.00000 -0.00000
							CHANNELS 3 Zrotation Yrotation Xrotation
							JOINT LeftHand
							{
								OFFSET 3.69232 -0.00000 -0.00000
								CHANNELS 3 Zrotation Yrotation Xrotation
								JOINT LeftFingerBase
								{
									OFFSET 0 0 0
									CHANNELS 3 Zrotation Yrotation Xrotation
									JOINT LeftHandIndex1
									{
										OFFSET 0.53660 -0.00000 -0.00000
										CHANNELS 3 Zrotation Yrotation Xrotation
										End Site
										{
											OFFSET 0.43262 -0.00000 -0.00000
										}
									}
								}
								JOINT LThumb
								{
									OFFSET 0 0 0
									CHANNELS 3 Zrotation Yrotation Xrotation
									End Site
									{
										OFFSET 0.43922 -0.00000 0.43922
									}
								}
							}
						}
					}
				}
				JOINT RightShoulder
				{
					OFFSET 0 0 0
					CHANNELS 3 Zrotation Yrotation Xrotation
					JOINT RightArm
					{
						OFFSET -3.21387 0.93002 -0.34594
						CHANNELS 3 Zrotation Yrotation Xrotation
						JOINT RightForeArm
						{
							OFFSET -5.23431 -0.00000 0.00000
							CHANNELS 3 Zrotation Yrotation Xrotation
							JOINT RightHand
							{
								OFFSET -3.55301 -0.00000 -0.00000
								CHANNELS 3 Zrotation Yrotation Xrotation
								JOINT RightFingerBase
								{
									OFFSET 0 0 0
									CHANNELS 3 Zrotation Yrotation Xrotation
									JOINT RightHandIndex1
									{
										OFFSET -0.77252 -0.00000 -0.00000
										CHANNELS 3 Zrotation Yrotation Xrotation
										End Site
										{
											OFFSET -0.62283 -0.00000 -0.00000
										}
									}
								}
								JOINT RThumb
								{
									OFFSET 0 0 0
									CHANNELS 3 Zrotation Yrotation Xrotation
									End Site
									{
										OFFSET -0.63234 -0.00000 0.63234
									}
								}
							}
						}
					}
				}
			}
		}
	}
}
MOTION
Frames: 11
Frame Time: 0.0740741
0.00 0.00 0.00 0 0 0 0 0 0 -21 0 0 0 0 0 0 0 0 0 0 0 0 0 0 21 0 0 0 0 0 0 0 0 0 0 0 0 0 0 0 0 0 0 0 0 0 0 -16 0 0 21 0 0 11 0 0 0 -8 0 0 0 0 0 0 0 0 0 0 0 0 0 0 0 0 0 0 0 0 8 0 0 0 0 0 0 0 0 0 0 0 0 0 0 0 0 0
0.00 0.00 0.00 -0.2132 33.8221 1.3850 0.0000 0.0000 0.0000 -20.6926 -3.4189 -15.9365 0.5996 4.9569 13.7857 -0.2663 -9.2002 1.9601 0.0031 -0.3616 -0.9935 0.0000 0.0000 0.0000 22.1092 -4.8269 7.8963 -2.3491 -9.5582 27.5575 -0.0341 -0.1423 -3.5407 -0.4263 4.1905 -11.6133 2.2974 3.0986 10.0777 -0.3109 4.3754 0.2968 -2.2339 2.1011 -5.1368 -11.5136 -7.2820 -15.2537 8.1195 -9.7224 33.4698 3.6978 -4.3987 15.2965 0.0000 -0.0000 0.0000 -88.2916 5.9322 9.4842 13.7527 -22.3801 -2.7332 -0.0000 -0.0000 8.4846 23.4783 25.4067 10.5565 -7.1250 0.0000 -0.0000 -6.9105 57.2237 -2.0759 0.0000 -0.0000 0.0000 90.1799 -3.7309 12.0761 -16.6080 26.3382 -3.9118 0.0000 0.0000 5.4797 -17.1006 7.8639 -2.4103 7.1250 -0.0000 -0.0000 7.0671 -21.7800 3.9700
0.00 0.00 0.00 2.1294 33.6863 1.6122 0.0000 0.0000 0.0000 -24.1700 0.8908 -10.6129 0.3327 3.7071 10.2540 -0.5020 -12.4461 4.1284 0.2012 2.8882 7.9676 0.0000 0.0000 0.0000 17.8460 -3.1723 0.3185 -5.8294 -14.2610 44.2933 -0.3732 -0.4196 11.3995 -0.0005 -0.1474 0.4049 -0.0855 2.8491 10.0854 -0.6651 3.7524 0.5833 -1.1775 1.8499 -5.0009 -11.6076 -7.0136 -15.6429 7.9965 -9.2256 33.6106 3.7526 -4.2129 15.3829 0.0000 -0.0000 0.0000 -87.7616 5.7984 11.9806 14.5834 -23.5625 -3.0574 -0.0000 -0.0000 8.3230 23.6435 24.5810 10.3212 -7.1250 0.0000 -0.0000 -6.3925 56.4010 -1.7922 0.0000 -0.0000 0.0000 89.4984 -4.7216 11.7843 -16.6420 26.3834 -3.9269 0.0000 0.0000 5.6525 -16.0704 8.3526 -2.3963 7.1250 -0.0000 -0.0000 7.8014 -21.3250 4.4710
0.00 0.00 0.00 5.1744 33.3868 1.8761 0.0000 0.0000 0.0000 -27.9121 3.4367 -2.0163 0.0326 1.1655 3.2043 -0.3987 -11.2759 6.2279 0.6588 5.1914 14.4554 0.0000 0.0000 0.0000 13.6618 0.1955 -8.4863 -10.4373 -17.6485 60.9403 -0.1211 -3.6521 6.3097 -0.0447 -1.3648 3.7533 -3.1631 2.6156 10.7436 -1.1043 3.0574 1.0559 0.1670 1.5691 -5.0217 -11.8060 -6.7727 -16.1493 7.7384 -8.6779 33.9342 3.7817 -4.0363 15.5787 0.0000 0.0000 0.0000 -86.9350 3.2769 14.1965 14.8087 -23.8789 -3.1481 -0.0000 -0.0000 6.9033 25.6346 26.1100 11.9248 -7.1250 0.0000 -0.0000 -4.8374 58.4438 -1.5929 0.0000 0.0000 0.0000 89.0872 -4.0264 9.5916 -16.2396 25.8445 -3.7498 0.0000 0.0000 5.2504 -16.4720 7.0684 -2.0838 7.1250 -0.0000 -0.0000 7.5450 -22.6306 4.0954
0.00 0.00 0.00 5.4911 34.9654 0.8499 0.0000 0.0000 0.0000 -28.8794 2.3686 0.7875 0.5358 4.6903 13.0272 -0.3134 -13.0091 -4.2963 0.1319 2.3406 6.4480 0.0000 0.0000 0.0000 12.4264 5.9164 -21.0070 -10.1637 -17.5009 60.0342 -0.1884 -3.0542 -9.9135 -0.0822 -1.8498 5.0908 -4.0761 0.9282 11.6768 -0.6182 0.6911 1.1624 1.5382 0.4322 -5.3727 -11.7169 -5.9649 -16.6287 6.2268 -6.9175 34.6771 3.4631 -3.4941 15.7322 -0.0000 0.0000 0.0000 -85.5212 2.2154 17.6939 18.9824 -29.3969 -5.0222 -0.0000 -0.0000 3.9864 21.0472 23.6541 8.7766 -7.1250 0.0000 -0.0000 -8.7524 54.9084 -2.1421 -0.0000 0.0000 0.0000 87.9081 -3.0900 9.0002 -15.5468 24.9024 -3.4529 0.0000 0.0000 5.1873 -16.8214 6.8075 -2.0524 7.1250 -0.0000 -0.0000 7.2972 -22.8862 3.9157
0.00 0.00 0.00 3.6957 40.7861 1.2174 0.0000 0.0000 0.0000 -23.2386 1.0162 15.6017 1.3519 7.3604 20.7876 0.2016 -9.4133 16.4479 0.0123 0.7164 1.9689 0.0000 0.0000 0.0000 17.6683 6.3706 -20.9558 -2.1822 -9.2357 26.5356 -0.0084 -1.1416 -2.5283 -0.2157 -2.9901 8.2512 -3.6629 -0.0984 11.4114 0.7143 -0.5383 0.9322 2.9019 -0.1650 -5.3856 -11.8886 -6.0377 -16.3599 5.5982 -6.7365 36.5876 3.3229 -3.5293 16.6015 0.0000 0.0000 0.0000 -87.3943 5.2741 16.1991 17.9107 -28.0427 -4.5072 -0.0000 -0.0000 4.8889 23.0108 24.4933 9.9859 -7.1250 0.0000 -0.0000 -7.0325 56.1757 -1.9344 0.0000 0.0000 0.0000 89.8955 -4.2282 2.4696 -12.4652 20.4987 -2.2626 0.0000 0.0000 9.5759 -15.8464 7.1506 -2.0236 7.1250 -0.0000 -0.0000 7.9992 -22.5711 4.3575
0.00 0.00 0.00 0.2386 42.1800 -1.4734 0.0000 0.0000 0.0000 -19.4259 -2.8346 6.7426 4.2239 12.4525 37.3521 1.6798 -11.8031 31.1959 0.1751 2.6953 7.4315 0.0000 0.0000 0.0000 21.8057 5.8042 -15.9556 -2.0065 -8.8796 25.4196 -0.0374 -2.9598 -5.8940 -0.3362 -3.7260 10.3071 -0.6892 -0.4541 11.5758 1.2166 -0.6002 1.0192 1.7587 -0.2573 -5.4055 -11.9211 -5.9742 -15.6635 5.5739 -6.6813 37.1747 3.3628 -3.5217 16.7336 -0.0000 -0.0000 0.0000 -86.7003 7.2116 18.2252 16.9866 -26.8401 -4.0813 -0.0000 -0.0000 7.3813 18.2290 20.3165 6.5234 -7.1250 0.0000 -0.0000 -10.3223 50.9889 -1.5370 -0.0000 -0.0000 0.0000 89.8174 -4.4713 4.7088 -13.3046 21.7319 -2.5650 0.0000 0.0000 9.1319 -15.3461 7.1980 -1.9694 7.1250 -0.0000 -0.0000 8.3624 -22.5419 4.5651
0.00 0.00 0.00 -1.3892 42.7652 -3.3748 0.0000 0.0000 0.0000 -17.1701 -6.7346 -2.0058 7.8104 15.9780 51.8767 0.3774 -11.4751 20.8082 0.1837 2.7604 7.6125 0.0000 0.0000 0.0000 24.2461 3.8633 -10.6843 -1.7650 -8.3584 23.8080 -0.1340 -2.9746 -8.6731 -0.4091 -4.1060 11.3751 0.4410 -0.0100 11.9784 1.7237 0.1721 1.4577 1.5274 0.1050 -5.1939 -12.9007 -6.3437 -15.0161 5.7138 -7.0092 37.8332 3.5698 -3.7800 17.0483 -0.0000 -0.0000 0.0000 -87.5981 7.0297 17.7703 16.2855 -25.9062 -3.7698 -0.0000 -0.0000 9.3032 17.4922 19.9955 6.1507 -7.1250 0.0000 -0.0000 -10.9256 50.5430 -1.5080 -0.0000 -0.0000 0.0000 88.2251 -3.2439 6.7180 -14.0436 22.7970 -2.8450 0.0000 0.0000 6.9221 -16.2393 7.3891 -2.1453 7.1250 -0.0000 -0.0000 7.7051 -22.3095 4.2409
0.00 0.00 0.00 -2.4248 41.3914 -4.4436 0.0000 0.0000 0.0000 -14.4728 -5.8447 -14.9565 8.7793 16.6636 55.3237 -0.1000 -5.5988 2.0350 0.0001 0.0480 0.1320 0.0000 0.0000 0.0000 26.1550 1.5379 -4.9845 -1.6612 -8.1215 23.0837 -0.3917 -1.0468 -12.2476 -0.2510 -3.2237 8.9022 1.8255 1.4058 11.7777 1.4661 2.2042 1.7897 0.1578 1.0815 -4.7160 -13.5137 -6.7962 -13.7087 6.4622 -7.9130 38.4058 3.8962 -4.1459 17.2549 -0.0000 -0.0000 0.0000 -88.0704 7.1525 17.1622 17.0718 -26.9523 -4.1198 -0.0000 -0.0000 5.7224 22.8569 23.1714 9.4176 -7.1250 0.0000 -0.0000 -6.6852 54.7698 -1.6097 -0.0000 -0.0000 0.0000 86.8110 -0.5512 7.0504 -15.1598 24.3682 -3.2916 0.0000 0.0000 6.0266 -17.6541 7.7860 -2.4688 7.1250 -0.0000 -0.0000 6.6668 -21.8343 3.7337
0.00 0.00 0.00 -3.4004 40.2131 -4.3483 0.0000 0.0000 0.0000 -13.2873 -6.3991 -20.8992 5.0011 13.3850 40.8274 0.0521 -4.0695 -4.6305 0.0749 -1.7658 -4.8588 0.0000 0.0000 0.0000 27.3503 0.3914 -1.3120 -1.5772 -7.9236 22.4821 -0.6893 -0.1719 -15.7533 -0.1290 -2.3153 6.3780 2.9907 2.1623 11.7076 1.3542 3.3495 1.5308 -0.7904 1.6194 -4.8649 -13.2607 -6.6530 -12.7193 6.5539 -7.8952 38.2150 3.9129 -4.0925 16.8808 -0.0000 -0.0000 0.0000 -88.0487 7.2646 17.5039 17.3957 -27.3764 -4.2677 -0.0000 -0.0000 6.5508 21.4073 24.8629 9.3601 -7.1250 0.0000 -0.0000 -8.8872 56.2201 -2.4592 -0.0000 -0.0000 0.0000 85.1745 1.4671 8.8676 -16.7088 26.4722 -3.9566 0.0000 0.0000 5.5813 -16.8911 7.8246 -2.3672 7.1250 -0.0000 -0.0000 7.2200 -21.8307 4.0488
0.00 0.00 0.00 3.0034 38.6943 8.3745 0.0000 0.0000 0.0000 -15.1280 -11.3860 -32.0619 4.4796 12.7726 38.5231 -0.0598 -8.3560 -4.5667 0.4781 -4.4343 -12.3017 0.0000 0.0000 0.0000 18.4859 -2.9713 -35.9186 -4.1634 -12.3747 37.0708 -0.1635 -4.2983 -10.4409 -0.1656 -2.6214 7.2265 2.6902 2.1079 28.2396 2.8879 3.9630 8.1388 0.3367 1.9999 -6.4877 -13.5734 -7.1235 -12.0899 5.3846 -7.8872 35.6160 3.3805 -4.2084 15.3588 -0.0000 0.0000 0.0000 -86.1893 -3.3895 55.7231 50.0281 -53.0068 -26.1966 -0.0000 -0.0000 1.4477 23.9411 23.3644 9.9863 -7.1250 0.0000 -0.0000 -5.6183 55.1907 -1.4090 -0.0000 0.0000 0.0000 78.4981 23.9191 33.8444 -19.7635 30.3563 -5.4113 0.0000 0.0000 3.2381 -17.8060 7.4247 -2.3767 7.1250 -0.0000 -0.0000 6.5627 -22.2031 3.6193
